<svg height="63" id="picto-fidusign" viewBox="0 0 68 63" width="68" xmlns="http://www.w3.org/2000/svg">
  <defs>
    <clipPath id="clip-path">
      <rect data-name="Rectangle 67" fill="none" height="63" id="Rectangle_67" width="68"/>
    </clipPath>
    <clipPath id="clip-path-2">
      <rect data-name="Rectangle 66" fill="none" height="63.001" id="Rectangle_66" width="68.001"/>
    </clipPath>
    <clipPath id="clip-path-3">
      <rect data-name="Rectangle 65" fill="none" height="57.827" id="Rectangle_65" width="62.831"/>
    </clipPath>
  </defs>
  <g clip-path="url(#clip-path)" data-name="Groupe 1129" id="Groupe_1129">
    <g data-name="Groupe 1128" id="Groupe_1128" transform="translate(0 -0.001)">
      <g clip-path="url(#clip-path-2)" data-name="Groupe 1127" id="Groupe_1127">
        <g data-name="Groupe 1126" id="Groupe_1126" opacity="0.1" transform="translate(5.169 5.173)">
          <g data-name="Groupe 1125" id="Groupe_1125">
            <g clip-path="url(#clip-path-3)" data-name="Groupe 1124" id="Groupe_1124">
              <path
                d="M63.1,15.335H42.146a6.412,6.412,0,0,0,0,12.823h2.942a2.966,2.966,0,0,1,0,5.932H3.621a1.682,1.682,0,0,0,0,3.364H45.088a6.329,6.329,0,0,0,0-12.658H42.146a3.048,3.048,0,0,1,0-6.1H63.1a1.682,1.682,0,0,0,0-3.364"
                data-name="Tracé 951" fill="#9a9b9f" id="Tracé_951" transform="translate(-1.944 20.374)"/>
              <path
                d="M6.861,49.785H15.8a4.848,4.848,0,0,0,3.428-1.437L46.045,21.191a11.422,11.422,0,0,0,0-15.937l0,0A11.014,11.014,0,0,0,38.146,1.94h0a11,11,0,0,0-7.525,3H25.224a9.944,9.944,0,0,0-7.017,2.922L6.819,19.343A1.68,1.68,0,1,0,9.2,21.713L20.588,10.234a6.59,6.59,0,0,1,4.636-1.927H27.23L3.435,32.4a4.886,4.886,0,0,0-1.412,3.45V44.9a4.865,4.865,0,0,0,4.838,4.884"
                data-name="Tracé 952" fill="#9a9b9f" id="Tracé_952" transform="translate(-1.811 -1.941)"/>
            </g>
          </g>
        </g>
        <path
          d="M61.154,13.394H40.2a6.412,6.412,0,0,0,0,12.823h2.942a2.966,2.966,0,0,1,0,5.932H1.678a1.682,1.682,0,0,0,0,3.364H43.145a6.329,6.329,0,0,0,0-12.658H40.2a3.048,3.048,0,0,1,0-6.1H61.154a1.682,1.682,0,0,0,0-3.364"
          data-name="Tracé 953" fill="#9a9b9f" id="Tracé_953" transform="translate(0 22.314)"/>
        <path
          d="M4.918,47.842h8.94a4.848,4.848,0,0,0,3.428-1.437L44.1,19.251a11.422,11.422,0,0,0,0-15.937l0,0A11.018,11.018,0,0,0,36.2,0h0a11,11,0,0,0-7.525,3H23.281a9.944,9.944,0,0,0-7.017,2.922L4.876,17.4a1.68,1.68,0,1,0,2.381,2.37L18.645,8.294a6.593,6.593,0,0,1,4.636-1.93h2.005L1.492,30.463A4.879,4.879,0,0,0,.08,33.91v9.051a4.865,4.865,0,0,0,4.838,4.881M36.2,3.364a7.685,7.685,0,0,1,5.508,2.311,8.042,8.042,0,0,1,0,11.21l-4.859,4.921A13.193,13.193,0,0,1,25.417,11.016l5.016-5.081a1.534,1.534,0,0,0,.16-.163l.1-.1A7.693,7.693,0,0,1,36.2,3.364ZM3.437,33.91a1.538,1.538,0,0,1,.442-1.08l15.6-15.8A16.38,16.38,0,0,0,30.886,27.851L14.9,44.041a1.462,1.462,0,0,1-1.04.44H4.916a1.5,1.5,0,0,1-1.479-1.52Z"
          data-name="Tracé 954" fill="#9a9b9f" id="Tracé_954" transform="translate(0.133 0.001)"/>
      </g>
    </g>
  </g>
</svg>
