<svg height="63" viewBox="0 0 52 63" width="52" xmlns="http://www.w3.org/2000/svg">
  <defs>
    <clipPath id="clip-path">
      <rect data-name="Rectangle 60" fill="none" height="63" id="Rectangle_60" width="52"/>
    </clipPath>
    <clipPath id="clip-path-2">
      <rect data-name="Rectangle 59" fill="none" height="63.001" id="Rectangle_59" width="52.001"/>
    </clipPath>
    <clipPath id="clip-path-3">
      <rect data-name="Rectangle 57" fill="none" height="45.154" id="Rectangle_57" width="45.289"/>
    </clipPath>
    <clipPath id="clip-path-4">
      <rect data-name="Rectangle 58" fill="none" height="9.65" id="Rectangle_58" width="35.812"/>
    </clipPath>
  </defs>
  <g id="picto-ged-sofiral" transform="translate(0)">
    <g clip-path="url(#clip-path)" data-name="Groupe 1113" id="Groupe_1113" transform="translate(0)">
      <g data-name="Groupe 1112" id="Groupe_1112" transform="translate(0 -0.001)">
        <g clip-path="url(#clip-path-2)" data-name="Groupe 1111" id="Groupe_1111">
          <g data-name="Groupe 1107" id="Groupe_1107" opacity="0.1" transform="translate(6.711 2.974)">
            <g data-name="Groupe 1106" id="Groupe_1106">
              <g clip-path="url(#clip-path-3)" data-name="Groupe 1105" id="Groupe_1105">
                <path
                  d="M46.54,38.764,30.383,22.638l2.945-3.1a4.312,4.312,0,0,0,5.348-.635h0a4.428,4.428,0,0,0,0-6.22L28.477,2.4a4.372,4.372,0,0,0-6.794,5.411L9.184,20.386A4.382,4.382,0,0,0,3.8,27.224l10.2,10.286A4.32,4.32,0,0,0,17.095,38.8h0a4.324,4.324,0,0,0,3.086-1.288,4.424,4.424,0,0,0,.635-5.387l3.389-3.274L40.36,44.98a4.358,4.358,0,0,0,6.178,0,4.428,4.428,0,0,0,0-6.22"
                  data-name="Tracé 939" fill="#00509d" id="Tracé_939" transform="translate(-2.524 -1.11)"/>
              </g>
            </g>
          </g>
          <g data-name="Groupe 1110" id="Groupe_1110" opacity="0.1" transform="translate(5.623 53.351)">
            <g data-name="Groupe 1109" id="Groupe_1109">
              <g clip-path="url(#clip-path-4)" data-name="Groupe 1108" id="Groupe_1108">
                <path
                  d="M36.21,26.105c-.949,0-1.866-.005-2.759-.005v-.316a5.837,5.837,0,0,0-5.816-5.858H12.389a5.837,5.837,0,0,0-5.816,5.858v.3c-2.8.011-2.927.029-2.993.04a1.714,1.714,0,0,0-1.457,1.882,1.776,1.776,0,0,0,1.821,1.566c.965-.051,19.817-.027,32.255.005H36.2a1.736,1.736,0,0,0,.005-3.473"
                  data-name="Tracé 940" fill="#00509d" id="Tracé_940" transform="translate(-2.116 -19.927)"/>
              </g>
            </g>
          </g>
          <path d="M22.74,18.031H7.492a5.837,5.837,0,0,0-5.816,5.858v2.2h26.88v-2.2a5.837,5.837,0,0,0-5.816-5.858"
                data-name="Tracé 941" fill="#00509d" id="Tracé_941" transform="translate(2.779 30.246)"/>
          <path
            d="M34.089,23.83h-.005c-12.438-.032-31.29-.054-32.255-.005A1.773,1.773,0,0,1,.008,22.259a1.716,1.716,0,0,1,1.454-1.882c.154-.024.63-.088,32.633-.019a1.736,1.736,0,0,1-.005,3.473"
            data-name="Tracé 942" fill="#00509d" id="Tracé_942" transform="translate(0 34.096)"/>
          <path
            d="M44.036,37.651,27.879,21.526l2.945-3.1a4.325,4.325,0,0,0,5.351-.635l0,0a4.432,4.432,0,0,0,0-6.22L25.973,1.285A4.373,4.373,0,0,0,19.179,6.7L6.68,19.274A4.382,4.382,0,0,0,1.3,26.112L11.5,36.4a4.32,4.32,0,0,0,3.086,1.293h0A4.335,4.335,0,0,0,17.682,36.4a4.427,4.427,0,0,0,.633-5.387l3.392-3.274L37.856,43.868a4.358,4.358,0,0,0,6.178,0,4.428,4.428,0,0,0,0-6.22M22.231,3.737a.923.923,0,0,1,1.305,0l10.2,10.289a.935.935,0,0,1,0,1.315.918.918,0,0,1-1.3,0L22.233,5.049a.932.932,0,0,1,0-1.312M15.242,33.949a.9.9,0,0,1-.649.273.93.93,0,0,1-.651-.273L3.737,23.659A.936.936,0,0,1,3.466,23a.948.948,0,0,1,.271-.656.919.919,0,0,1,1.3,0l10.2,10.289a.929.929,0,0,1,0,1.312M41.6,41.416a.926.926,0,0,1-1.305,0L22.951,24.088a1.607,1.607,0,0,0-.29-.193,1.657,1.657,0,0,0-.266-.179,1.8,1.8,0,0,0-.316-.07,1.993,1.993,0,0,0-.33-.064,2.008,2.008,0,0,0-.308.054,1.823,1.823,0,0,0-.34.067,2.06,2.06,0,0,0-.25.158,1.95,1.95,0,0,0-.314.2l-4.466,4.316-6.779-6.83L21.353,9.413l6.776,6.833-3.9,4.1a1.742,1.742,0,0,0,.024,2.426L41.6,40.1a.94.94,0,0,1,0,1.315"
            data-name="Tracé 943" fill="#00509d" id="Tracé_943" transform="translate(0.035 0.002)"/>
        </g>
      </g>
    </g>
  </g>
</svg>
