<svg height="52" id="picto-ged-adv" viewBox="0 0 66 52" width="66" xmlns="http://www.w3.org/2000/svg">
  <defs>
    <clipPath id="clip-path">
      <rect data-name="Rectangle 42" fill="none" height="52" id="Rectangle_42" width="66"/>
    </clipPath>
    <clipPath id="clip-path-3">
      <rect data-name="Rectangle 40" fill="none" height="45.368" id="Rectangle_40" width="59.713"/>
    </clipPath>
  </defs>
  <g clip-path="url(#clip-path)" data-name="Groupe 1069" id="Groupe_1069" transform="translate(0 0)">
    <g data-name="Groupe 1068" id="Groupe_1068" transform="translate(0 0)">
      <g clip-path="url(#clip-path)" data-name="Groupe 1067" id="Groupe_1067">
        <g data-name="Groupe 1066" id="Groupe_1066" opacity="0.1" transform="translate(6.287 6.632)">
          <g data-name="Groupe 1065" id="Groupe_1065">
            <g clip-path="url(#clip-path-3)" data-name="Groupe 1064" id="Groupe_1064">
              <path
                d="M58.385,2.5c-4.243-.123-15.175.043-25.309,4.353a3.7,3.7,0,0,0-.857.528,3.7,3.7,0,0,0-.857-.528C21.229,2.541,10.294,2.377,6.054,2.5A3.812,3.812,0,0,0,2.362,6.347V39.123a3.844,3.844,0,0,0,1.153,2.766,3.663,3.663,0,0,0,2.771,1.084c4.32-.113,15.428.11,25.285,4.732a1.448,1.448,0,0,0,.62.137l.029-.008.027.008a1.431,1.431,0,0,0,.62-.137c9.862-4.624,20.978-4.852,25.285-4.732a3.757,3.757,0,0,0,2.774-1.084,3.842,3.842,0,0,0,1.15-2.766V6.347A3.811,3.811,0,0,0,58.385,2.5"
                data-name="Tracé 912" id="Tracé_912" transform="translate(-2.362 -2.472)"/>
            </g>
          </g>
        </g>
        <path
          d="M29.924,45.51h-.056a1.6,1.6,0,0,1-.684-.15c-9.761-4.573-20.826-4.8-25.117-4.7a3.789,3.789,0,0,1-2.875-1.119A3.989,3.989,0,0,1,0,36.669V4.019A3.957,3.957,0,0,1,3.828.025C8.063-.1,19.016.084,29.1,4.374a3.763,3.763,0,0,1,.793.472,3.634,3.634,0,0,1,.793-.472C40.784.084,51.743-.1,55.965.025A3.958,3.958,0,0,1,59.8,4.019v32.65a3.981,3.981,0,0,1-1.2,2.867,3.9,3.9,0,0,1-2.712,1.127c-.056,0-.112,0-.168-.005-4.264-.113-15.305.1-25.109,4.7a1.619,1.619,0,0,1-.687.15M54.144,3.268c-4.671,0-13.767.534-22.192,4.117a.689.689,0,0,0-.41.641V41.4c9.923-3.973,20.262-4.131,24.268-4a.806.806,0,0,0,.527-.2.744.744,0,0,0,.216-.526V4.019a.714.714,0,0,0-.684-.727c-.487-.013-1.067-.024-1.725-.024"
          data-name="Tracé 913" id="Tracé_913" transform="translate(0 -0.001)"/>
        <path
          d="M14.526,9.534a1.617,1.617,0,0,1-1.555-1.159,1.642,1.642,0,0,1,1.078-2.039A64.307,64.307,0,0,1,30.563,3.7l.051,0a1.636,1.636,0,0,1,.051,3.27A61.1,61.1,0,0,0,15,9.461a1.6,1.6,0,0,1-.474.072"
          data-name="Tracé 914" id="Tracé_914" transform="translate(21.441 6.22)"/>
        <path
          d="M14.526,12.824a1.618,1.618,0,0,1-1.555-1.156,1.645,1.645,0,0,1,1.078-2.041A64.459,64.459,0,0,1,30.563,6.99l.051,0a1.636,1.636,0,0,1,.051,3.27A61.218,61.218,0,0,0,15,12.751a1.587,1.587,0,0,1-.474.072"
          data-name="Tracé 915" id="Tracé_915" transform="translate(21.441 11.755)"/>
        <path
          d="M14.526,16.046a1.618,1.618,0,0,1-1.554-1.156,1.643,1.643,0,0,1,1.078-2.041,64.392,64.392,0,0,1,16.514-2.637l.051,0a1.635,1.635,0,0,1,.048,3.27A61.069,61.069,0,0,0,15,15.976a1.675,1.675,0,0,1-.474.07"
          data-name="Tracé 916" id="Tracé_916" transform="translate(21.44 17.176)"/>
      </g>
    </g>
  </g>
</svg>
