<svg height="63" viewBox="0 0 65 63" width="65" xmlns="http://www.w3.org/2000/svg">
  <defs>
    <clipPath id="clip-path">
      <rect data-name="Rectangle 47" fill="none" height="63" id="Rectangle_47" width="65"/>
    </clipPath>
    <clipPath id="clip-path-2">
      <rect data-name="Rectangle 46" fill="none" height="62.999" id="Rectangle_46" width="65.001"/>
    </clipPath>
    <clipPath id="clip-path-3">
      <rect data-name="Rectangle 43" fill="none" height="26.221" id="Rectangle_43" width="26.401"/>
    </clipPath>
    <clipPath id="clip-path-4">
      <rect data-name="Rectangle 44" fill="none" height="30.279" id="Rectangle_44" width="45.404"/>
    </clipPath>
    <clipPath id="clip-path-5">
      <rect data-name="Rectangle 45" fill="none" height="22.21" id="Rectangle_45" width="18.418"/>
    </clipPath>
  </defs>
  <g id="picto-ged-conseil" transform="translate(0)">
    <g clip-path="url(#clip-path)" data-name="Groupe 1082" id="Groupe_1082" transform="translate(0)">
      <g data-name="Groupe 1081" id="Groupe_1081" transform="translate(0 0.001)">
        <g clip-path="url(#clip-path-2)" data-name="Groupe 1080" id="Groupe_1080">
          <path
            d="M27.129,33.876a9.835,9.835,0,0,1-8.977-6.525H16.615a1.968,1.968,0,1,1,0-3.936H17.3a5.977,5.977,0,0,1,0-1.289h-.684a1.966,1.966,0,1,1,0-3.931h1.536a9.837,9.837,0,0,1,8.977-6.528,9,9,0,0,1,5.059,1.569,1.965,1.965,0,0,1,.523,2.735,2,2,0,0,1-2.754.517,4.971,4.971,0,0,0-2.829-.89,5.478,5.478,0,0,0-4.507,2.6h4.507a1.966,1.966,0,1,1,0,3.931H21.259a5.975,5.975,0,0,0,0,1.289h4.555a1.968,1.968,0,1,1,0,3.936H22.621a5.485,5.485,0,0,0,4.507,2.594,4.966,4.966,0,0,0,2.826-.887,1.993,1.993,0,0,1,2.756.517,1.964,1.964,0,0,1-.523,2.732,9.019,9.019,0,0,1-5.059,1.569"
            data-name="Tracé 917" fill="#ae1b31" id="Tracé_917" transform="translate(24.603 19.404)"/>
          <path
            d="M17.24,26.22a12.809,12.809,0,0,1-9.331-3.84A12.644,12.644,0,0,1,4.04,13.111,12.646,12.646,0,0,1,7.909,3.84,12.809,12.809,0,0,1,17.24,0,12.809,12.809,0,0,1,26.57,3.84a12.642,12.642,0,0,1,3.872,9.271,12.636,12.636,0,0,1-3.872,9.268,12.8,12.8,0,0,1-9.331,3.84m0-22.318a8.873,8.873,0,0,0-6.553,2.7,8.76,8.76,0,0,0-2.716,6.512,8.759,8.759,0,0,0,2.716,6.509,8.877,8.877,0,0,0,6.553,2.7,8.879,8.879,0,0,0,6.556-2.7,8.759,8.759,0,0,0,2.716-6.509A8.76,8.76,0,0,0,23.8,6.6,8.888,8.888,0,0,0,17.24,3.9"
            data-name="Tracé 918" fill="#ae1b31" id="Tracé_918" transform="translate(6.792 -0.001)"/>
          <path
            d="M42.728,13.315a2.294,2.294,0,0,1,.247,2.727,1.977,1.977,0,0,1-2.821.615l-.005.008a11.152,11.152,0,0,0-4.6-2.107c-.118.067-.295.17-.542.333-.681.445-1.445.94-2.338,1.513a16.78,16.78,0,0,1-3.845,1.728,15.328,15.328,0,0,1-9.588,0A16.683,16.683,0,0,1,15.4,16.4c-.869-.554-1.657-1.068-2.341-1.513-.249-.162-.421-.266-.539-.333a7.127,7.127,0,0,0-2.381.477,6.042,6.042,0,0,0-2,1.244,9.093,9.093,0,0,0-1.563,2.059A14.23,14.23,0,0,0,5.405,21a24.753,24.753,0,0,0-.759,3.124,30.164,30.164,0,0,0-.41,3.185c-.067,1.02-.1,2.061-.1,3.095a5.761,5.761,0,0,0,1.625,4.408A6.379,6.379,0,0,0,10.4,36.413H37.671a11.211,11.211,0,0,0,4.582-1.577l.013.021a1.912,1.912,0,0,1,2.695.5,2.259,2.259,0,0,1-.4,3.02c-.051.04-.113.048-.164.083l.013.027a11.69,11.69,0,0,1-6.738,2.139H10.4a10.408,10.408,0,0,1-7.47-2.751A9.893,9.893,0,0,1,0,30.4c0-1.169.04-2.309.115-3.39a33.636,33.636,0,0,1,.464-3.641,29.317,29.317,0,0,1,.893-3.675A18.472,18.472,0,0,1,2.99,16.237,13.1,13.1,0,0,1,5.3,13.222a10.182,10.182,0,0,1,3.335-2.107,11.4,11.4,0,0,1,4.231-.772,4.437,4.437,0,0,1,2.427,1.009c.676.439,1.451.943,2.309,1.491a12.661,12.661,0,0,0,2.9,1.281,11.278,11.278,0,0,0,7.076,0,12.608,12.608,0,0,0,2.9-1.281c.866-.551,1.644-1.057,2.309-1.491A4.434,4.434,0,0,1,35.2,10.346a11.41,11.41,0,0,1,4.231.77,10.053,10.053,0,0,1,2.89,1.822Z"
            data-name="Tracé 919" fill="#ae1b31" id="Tracé_919" transform="translate(0 17.202)"/>
          <path
            d="M14.233,11.94a11.421,11.421,0,0,1-2.11.21,11.263,11.263,0,0,1-2.475-.277A3.689,3.689,0,0,0,8.023,14.9a3.79,3.79,0,0,0,1.55,3.063L7.087,25.573a.455.455,0,0,0,.113.466l4.413,4.386a.468.468,0,0,0,.654,0l4.419-4.386a.461.461,0,0,0,.11-.466l-2.518-7.667a3.8,3.8,0,0,0,1.453-2.847,4.259,4.259,0,0,0-1.5-3.119"
            data-name="Tracé 920" fill="#ae1b31" id="Tracé_920" transform="translate(11.877 19.747)"/>
          <g data-name="Groupe 1073" id="Groupe_1073" opacity="0.1" transform="translate(18.177 5.175)">
            <g data-name="Groupe 1072" id="Groupe_1072">
              <g clip-path="url(#clip-path-3)" data-name="Groupe 1071" id="Groupe_1071">
                <path
                  d="M19.979,28.165a12.8,12.8,0,0,0,9.331-3.84,12.638,12.638,0,0,0,3.872-9.271,12.636,12.636,0,0,0-3.872-9.268,12.812,12.812,0,0,0-9.331-3.843,12.812,12.812,0,0,0-9.331,3.843,12.644,12.644,0,0,0-3.869,9.268,12.65,12.65,0,0,0,3.869,9.271,12.809,12.809,0,0,0,9.331,3.84"
                  data-name="Tracé 921" fill="#ae1b31" id="Tracé_921" transform="translate(-6.78 -1.944)"/>
              </g>
            </g>
          </g>
          <g data-name="Groupe 1076" id="Groupe_1076" opacity="0.1" transform="translate(7.344 32.72)">
            <g data-name="Groupe 1075" id="Groupe_1075">
              <g clip-path="url(#clip-path-4)" data-name="Groupe 1074" id="Groupe_1074">
                <path
                  d="M48.143,39.187a13.455,13.455,0,0,1-4.537-4.706,4.985,4.985,0,0,1-4.647-4.954,4.908,4.908,0,0,1,.748-2.61,4.91,4.91,0,0,1-.748-2.613,4.982,4.982,0,0,1,4.647-4.948,13.689,13.689,0,0,1,2.617-3.228c-.45-.546-.756-.871-.756-.871l-.4-.378a10.052,10.052,0,0,0-2.89-1.822,11.41,11.41,0,0,0-4.231-.77A4.434,4.434,0,0,0,35.514,13.3c-.665.434-1.442.94-2.309,1.491a12.608,12.608,0,0,1-2.9,1.281,11.288,11.288,0,0,1-1.5.362,11.268,11.268,0,0,1-2.051.205,11.1,11.1,0,0,1-1.649-.13c-.083-.013-.164-.029-.244-.043a11.606,11.606,0,0,1-1.63-.394,12.661,12.661,0,0,1-2.9-1.281c-.858-.549-1.633-1.052-2.309-1.491A4.437,4.437,0,0,0,15.6,12.286a11.4,11.4,0,0,0-4.231.772,10.183,10.183,0,0,0-3.335,2.107A13.1,13.1,0,0,0,5.729,18.18a18.472,18.472,0,0,0-1.518,3.457,29.318,29.318,0,0,0-.893,3.675,33.636,33.636,0,0,0-.464,3.641c-.075,1.081-.115,2.221-.115,3.39a9.893,9.893,0,0,0,2.928,7.47,10.408,10.408,0,0,0,7.47,2.751H40.41a11.69,11.69,0,0,0,6.738-2.139l-.016-.027c.054-.035.123-.035.166-.083.324-.376.563-.754.845-1.129"
                  data-name="Tracé 922" fill="#ae1b31" id="Tracé_922" transform="translate(-2.739 -12.287)"/>
              </g>
            </g>
          </g>
          <g data-name="Groupe 1079" id="Groupe_1079" opacity="0.1" transform="translate(46.582 36.247)">
            <g data-name="Groupe 1078" id="Groupe_1078">
              <g clip-path="url(#clip-path-5)" data-name="Groupe 1077" id="Groupe_1077">
                <path
                  d="M34.177,30.695A1.975,1.975,0,0,0,32.695,31a4.946,4.946,0,0,1-2.826.887,5.485,5.485,0,0,1-4.507-2.594h3.193a1.967,1.967,0,1,0,0-3.934H24c-.019-.213-.032-.426-.032-.644s.013-.434.032-.645h5.872a1.967,1.967,0,1,0,0-3.934H25.361a5.475,5.475,0,0,1,4.507-2.594,4.968,4.968,0,0,1,2.829.887,2,2,0,0,0,2.751-.517,1.964,1.964,0,0,0-.523-2.735,9,9,0,0,0-5.057-1.569,9.841,9.841,0,0,0-8.977,6.528H19.355a1.967,1.967,0,1,0,0,3.934h.684a5.552,5.552,0,0,0,0,1.289h-.684a1.967,1.967,0,1,0,0,3.934h1.536a9.837,9.837,0,0,0,8.977,6.528,9,9,0,0,0,5.057-1.569,1.962,1.962,0,0,0-.748-3.558"
                  data-name="Tracé 923" fill="#ae1b31" id="Tracé_923" transform="translate(-17.372 -13.611)"/>
              </g>
            </g>
          </g>
        </g>
      </g>
    </g>
  </g>
</svg>
