<svg height="52" viewBox="0 0 51 52" width="51" xmlns="http://www.w3.org/2000/svg">
  <defs>
    <clipPath id="clip-path">
      <rect data-name="Rectangle 53" fill="none" height="52" id="Rectangle_53" width="51"/>
    </clipPath>
    <clipPath id="clip-path-2">
      <rect data-name="Rectangle 52" fill="none" height="52.001" id="Rectangle_52" width="50.999"/>
    </clipPath>
    <clipPath id="clip-path-3">
      <rect data-name="Rectangle 51" fill="none" height="45.768" id="Rectangle_51" width="44.929"/>
    </clipPath>
  </defs>
  <g id="picto-ged-expertise-consulting" transform="translate(0)">
    <g clip-path="url(#clip-path)" data-name="Groupe 1096" id="Groupe_1096" transform="translate(0 0)">
      <g data-name="Groupe 1095" id="Groupe_1095" transform="translate(0 -0.001)">
        <g clip-path="url(#clip-path-2)" data-name="Groupe 1094" id="Groupe_1094">
          <path
            d="M13.111,6.938H10.082V3.852a1.65,1.65,0,1,0-3.3,0V6.938H3.754a1.68,1.68,0,0,0,0,3.36H6.784v3.086a1.65,1.65,0,1,0,3.3,0V10.3h3.029a1.68,1.68,0,0,0,0-3.36"
            data-name="Tracé 927" fill="#9a9b9f" id="Tracé_927" transform="translate(3.45 3.667)"/>
          <path
            d="M39.8,0H5.127A5.181,5.181,0,0,0,0,5.223V40.547A5.179,5.179,0,0,0,5.127,45.77H39.8a5.179,5.179,0,0,0,5.127-5.223V5.223A5.181,5.181,0,0,0,39.8,0M20.817,39.684a2.665,2.665,0,0,1-2.639,2.688H5.974a2.672,2.672,0,0,1-2.639-2.688V27.253a2.665,2.665,0,0,1,2.639-2.688h12.2a2.665,2.665,0,0,1,2.639,2.688Zm0-21.167a2.665,2.665,0,0,1-2.639,2.688H5.974a2.665,2.665,0,0,1-2.639-2.688V6.085A2.672,2.672,0,0,1,5.974,3.4h12.2a2.665,2.665,0,0,1,2.639,2.688Zm16.469,19.35h-9.36a1.68,1.68,0,0,1,0-3.36h9.36a1.68,1.68,0,0,1,0,3.36m0-5.392h-9.36a1.68,1.68,0,0,1,0-3.36h9.36a1.68,1.68,0,0,1,0,3.36m4.309-13.958a2.665,2.665,0,0,1-2.639,2.688h-12.2a2.665,2.665,0,0,1-2.639-2.688V6.085A2.665,2.665,0,0,1,26.754,3.4h12.2a2.665,2.665,0,0,1,2.639,2.688Z"
            data-name="Tracé 928" fill="#9a9b9f" id="Tracé_928" transform="translate(0 0.001)"/>
          <path d="M13.11,15.193H3.753a1.68,1.68,0,0,1,0-3.36H13.11a1.68,1.68,0,0,1,0,3.36" data-name="Tracé 929"
                fill="#9a9b9f" id="Tracé_929" transform="translate(3.448 19.974)"/>
          <path
            d="M5.534,13.425A1.76,1.76,0,0,1,4.9,13.29a2.155,2.155,0,0,1-.528-.349A1.552,1.552,0,0,1,4,12.376a1.7,1.7,0,0,1-.132-.645A1.941,1.941,0,0,1,4,11.086a1.729,1.729,0,0,1,.372-.535A1.324,1.324,0,0,1,4.9,10.2a1.467,1.467,0,0,1,1.264,0,1.343,1.343,0,0,1,.528.349,1.72,1.72,0,0,1,.369.535,1.877,1.877,0,0,1,.132.645,1.65,1.65,0,0,1-.132.645,1.545,1.545,0,0,1-.369.564,1.819,1.819,0,0,1-.528.349,1.785,1.785,0,0,1-.633.134"
            data-name="Tracé 930" fill="#9a9b9f" id="Tracé_930" transform="translate(6.345 16.979)"/>
          <path
            d="M5.534,16.981a1.764,1.764,0,0,1-.631-.137,1.672,1.672,0,0,1-.528-.374A1.719,1.719,0,0,1,4,15.93a1.636,1.636,0,0,1,0-1.288,1.452,1.452,0,0,1,.372-.538,1.389,1.389,0,0,1,.528-.376,1.685,1.685,0,0,1,1.264,0A1.41,1.41,0,0,1,6.7,14.1a1.446,1.446,0,0,1,.369.538,1.636,1.636,0,0,1,0,1.288,1.71,1.71,0,0,1-.369.54,1.465,1.465,0,0,1-.528.374,1.79,1.79,0,0,1-.633.137"
            data-name="Tracé 931" fill="#9a9b9f" id="Tracé_931" transform="translate(6.345 22.965)"/>
          <path
            d="M17.766,7.742l2.143-2.183a1.705,1.705,0,0,0,0-2.376,1.632,1.632,0,0,0-2.335,0L15.434,5.365l-2.14-2.183a1.632,1.632,0,0,0-2.335,0,1.705,1.705,0,0,0,0,2.376L13.1,7.742,10.961,9.924a1.705,1.705,0,0,0,0,2.376,1.632,1.632,0,0,0,2.335,0l2.14-2.183L17.576,12.3a1.632,1.632,0,0,0,2.335,0,1.705,1.705,0,0,0,0-2.376Z"
            data-name="Tracé 932" fill="#9a9b9f" id="Tracé_932" transform="translate(17.171 4.543)"/>
          <g data-name="Groupe 1093" id="Groupe_1093" opacity="0.1" transform="translate(6.071 6.232)">
            <g data-name="Groupe 1092" id="Groupe_1092">
              <g clip-path="url(#clip-path-3)" data-name="Groupe 1091" id="Groupe_1091">
                <path
                  d="M42.1,2.318H7.425A5.18,5.18,0,0,0,2.3,7.541V42.865a5.178,5.178,0,0,0,5.124,5.22H42.1a5.178,5.178,0,0,0,5.124-5.22V7.541A5.18,5.18,0,0,0,42.1,2.318"
                  data-name="Tracé 933" fill="#9a9b9f" id="Tracé_933" transform="translate(-2.301 -2.319)"/>
              </g>
            </g>
          </g>
        </g>
      </g>
    </g>
  </g>
</svg>
